<?xml version="1.0" encoding="UTF-8"?><svg xmlns="http://www.w3.org/2000/svg" xmlns:xlink="http://www.w3.org/1999/xlink" height="402.3" preserveAspectRatio="xMidYMid meet" version="1.0" viewBox="-2.6 -1.6 403.2 402.3" width="403.2" zoomAndPan="magnify"><g id="change1_1"><path d="M398.03,245.78L221.23,68.99c-0.84-0.83-1.91-1.44-3.14-1.72L114.46,43.96c-2.2-0.67-4.7-0.13-6.44,1.61 c-4.03,4.03-8.06,8.05-12.08,12.08c-1.48-1.73-3-3.47-4.55-5.19c-3.17-3.53-6.44-7-9.65-10.21c-7.43-7.43-14.97-14.12-22.26-19.86 L59,22.01C48.95,14.13,39.38,8.07,31.25,4.36C19.27-1.1,9.45-1.64,3.86,3.94v0.03C-2.62,10.45-0.68,23,7.7,38.05 c7.21,12.96,19.26,28.55,34.41,43.71c5.14,5.14,10.33,9.92,15.46,14.27c-4.02,4.03-8.05,8.05-12.07,12.08 c-1.5,1.51-2.23,3.73-1.73,5.96l23.31,103.64c0.2,1.32,0.8,2.59,1.82,3.6l176.8,176.8c2.52,2.52,6.6,2.52,9.12,0L398.03,254.9 C400.55,252.39,400.55,248.3,398.03,245.78z M51.23,72.64C36.86,58.26,25.56,43.71,18.94,31.8c-5.16-9.27-7.6-16.06-6.23-18.4 l0.31-0.29c0.24-0.24,0.56-0.41,0.96-0.52c2.05-0.4,6.26,0.87,11.93,3.46l2.5,1.2l3.38,1.82c11.9,6.63,26.46,17.92,40.83,32.29 c3.22,3.22,6.33,6.51,9.2,9.71c1.74,1.94,3.41,3.85,4.98,5.71c-6.7,6.7-13.4,13.41-20.1,20.11C61.61,82.58,56.41,77.81,51.23,72.64z M384.35,250.34L250.26,384.43L79.32,213.49L57.1,114.72l10.57-10.57c6.38,4.82,12.51,8.87,18.15,12.01c1.6,0.89,3.17,1.7,4.71,2.44 c0.67,5.32,3.05,10.46,7.13,14.55c4.89,4.89,11.3,7.34,17.71,7.34c6.41,0,12.82-2.45,17.71-7.34c4.89-4.89,7.34-11.3,7.34-17.71 c0-6.41-2.45-12.82-7.34-17.71c-4.57-4.57-10.47-7-16.45-7.3c-1.57-0.66-3.39-0.71-5.07,0.03c-0.24,0.1-0.46,0.22-0.68,0.35 c-4.84,0.88-9.48,3.19-13.22,6.93c-2.22,2.22-3.92,4.75-5.14,7.44c-0.15-0.09-0.3-0.16-0.46-0.25c-4.71-2.62-9.84-5.98-15.2-9.97 l37.78-37.78l98.76,22.22L384.35,250.34L384.35,250.34z M110.26,104.44c0.44,1.53,0.7,2.91,0.78,4.12c0.08,1.27,0.01,2.08-0.24,2.33 c-0.97,0.97-3.27,0.82-6.57-0.27c0.59-1.36,1.43-2.65,2.55-3.76C107.81,105.82,109,105.02,110.26,104.44z M119.92,120.01 c3.03-3.03,4.29-7.2,3.97-12.25c-0.02-0.34-0.06-0.69-0.1-1.04c0.05,0.05,0.11,0.09,0.16,0.15c2.37,2.37,3.56,5.48,3.56,8.59 c0,3.11-1.19,6.22-3.56,8.59s-5.48,3.56-8.59,3.56c-3.11,0-6.22-1.19-8.59-3.56c-0.11-0.11-0.2-0.23-0.3-0.34 C112.13,124.32,116.76,123.18,119.92,120.01z M197.28,172.3l-36.23,36.23c-2.52,2.52-2.52,6.6,0,9.12c2.52,2.52,6.6,2.52,9.12,0l0,0 l19.14-19.14l18.05,18.05l-19.14,19.14c-2.52,2.52-2.52,6.6,0,9.12c2.52,2.52,6.6,2.52,9.12,0l36.23-36.23 c4.22-4.22,6.52-9.66,6.84-15.02c0.33-5.6-1.52-11.13-5.6-15.21l-7.29-7.29c-4.09-4.09-9.61-5.93-15.21-5.6 C206.94,165.78,201.5,168.09,197.28,172.3z M218.39,180.19l7.29,7.29c1.38,1.38,1.99,3.34,1.87,5.39c-0.13,2.29-1.18,4.68-3.11,6.61 l-7.97,7.97l-18.05-18.05l7.97-7.97c1.93-1.93,4.32-2.97,6.61-3.11C215.05,178.2,217.02,178.82,218.39,180.19z M168.08,191.86 c-4.41,4.41-10.09,6.81-15.67,7.14c-5.83,0.34-11.59-1.58-15.84-5.83l-6.08-6.08c-4.25-4.25-6.17-10.01-5.83-15.84l0-0.03 c0.32-5.58,2.73-11.25,7.14-15.65c2.52-2.52,6.6-2.52,9.12,0c2.52,2.52,2.52,6.6,0,9.12c-2.11,2.11-3.26,4.75-3.41,7.29 c-0.13,2.27,0.57,4.45,2.1,5.99l6.08,6.08c1.54,1.54,3.73,2.23,6.01,2.1c2.52-0.15,5.15-1.29,7.26-3.41 c2.11-2.11,3.26-4.74,3.41-7.26c0.13-2.17-0.48-4.26-1.86-5.78l-0.25-0.23v0l-6.08-6.08c-4.25-4.25-6.17-10.01-5.83-15.84 c0.32-5.59,2.73-11.27,7.14-15.67c4.4-4.4,10.07-6.81,15.65-7.14l0.18-0.01c5.78-0.3,11.47,1.62,15.69,5.84l6.08,6.08 c4.25,4.25,6.17,10.01,5.83,15.84c-0.32,5.59-2.73,11.27-7.14,15.67c-2.52,2.52-6.6,2.52-9.12,0c-2.52-2.52-2.52-6.6,0-9.12 c2.11-2.11,3.26-4.74,3.41-7.26c0.13-2.28-0.56-4.47-2.1-6.01l-6.08-6.08c-1.52-1.52-3.67-2.21-5.92-2.11l-0.07,0 c-2.54,0.15-5.18,1.3-7.29,3.41c-2.11,2.11-3.26,4.74-3.41,7.26c-0.13,2.28,0.56,4.47,2.1,6.01l6.08,6.08l0.4,0.43 c3.97,4.21,5.76,9.77,5.44,15.41C174.89,181.78,172.48,187.46,168.08,191.86z M238.45,276.81L238.45,276.81L238.45,276.81 L238.45,276.81z M202.16,249.64l47.4-47.4c2.52-2.52,6.6-2.52,9.12,0c2.52,2.52,2.52,6.6,0,9.12l-42.84,42.84l22.61,22.61 c2.52,2.52,2.52,6.6,0,9.12c-2.52,2.52-6.6,2.52-9.12,0l-27.17-27.17C199.64,256.24,199.64,252.16,202.16,249.64z M266.97,267.05 C266.97,267.05,266.97,267.05,266.97,267.05l23.7-23.7c2.52-2.52,6.6-2.52,9.12,0l27.17,27.17c2.52,2.52,2.52,6.6,0,9.12 c-2.52,2.52-6.6,2.52-9.12,0l-22.61-22.61l-14.58,14.58l17.85,17.85c2.52,2.52,2.52,6.6,0,9.12c-2.52,2.52-6.6,2.52-9.12,0 l-17.85-17.85l-14.58,14.58l22.61,22.61v0c2.52,2.52,2.52,6.6,0,9.12c-2.52,2.52-6.6,2.52-9.12,0l-27.17-27.17 c-2.52-2.52-2.52-6.6,0-9.12L266.97,267.05C266.97,267.05,266.97,267.05,266.97,267.05z"/></g></svg>